<svg width="34" height="23" viewBox="0 0 34 23" fill="none" xmlns="http://www.w3.org/2000/svg">
<path d="M33.7361 11.8227C33.6116 11.6315 33.4447 11.4639 33.2452 11.3296C33.0457 11.1953 32.8176 11.097 32.5741 11.0404C31.4698 10.7939 30.3258 10.7113 29.1901 10.796C29.844 8.27434 29.417 6.28442 28.9871 5.12444C28.8371 4.71466 28.5177 4.36834 28.0912 4.15298C27.6646 3.93763 27.1615 3.86868 26.6798 3.95958C25.1849 4.25231 23.7697 4.7966 22.5132 5.56203C21.6389 3.90138 20.3169 2.4503 18.6603 1.33283C18.3204 1.10922 17.9063 0.988281 17.4807 0.988281C17.0551 0.988281 16.6411 1.10922 16.3012 1.33283C14.6455 2.45079 13.324 3.90177 12.4496 5.56203C11.1928 4.79632 9.77708 4.25201 8.2816 3.95958C7.79998 3.86879 7.29689 3.93795 6.87052 4.15356C6.44416 4.36917 6.12513 4.71575 5.9757 5.12566C5.54588 6.28564 5.11886 8.27556 5.77269 10.7972C4.63698 10.7125 3.49305 10.7951 2.38874 11.0417C2.14528 11.0982 1.91715 11.1965 1.71764 11.3308C1.51813 11.4651 1.35124 11.6328 1.22669 11.8239C1.09579 12.0204 1.01104 12.2377 0.977381 12.4631C0.943728 12.6885 0.961845 12.9175 1.03068 13.1367C1.4941 14.6377 2.92076 17.4906 7.24976 19.7531C11.5788 22.0156 15.4219 22.0131 17.4814 22.0131C19.5409 22.0131 23.3785 22.0131 27.7103 19.7531C32.0421 17.493 33.4659 14.6377 33.9294 13.1355C33.9986 12.9164 34.0172 12.6875 33.984 12.4621C33.9508 12.2367 33.8666 12.0194 33.7361 11.8227ZM23.1489 6.96647C24.3016 6.2076 25.6252 5.67024 27.0326 5.38968C27.1074 5.37636 27.1852 5.38774 27.2509 5.42161C27.3166 5.45549 27.3655 5.50944 27.3883 5.57303C27.9399 7.0667 28.4817 10.1567 25.9056 14.0681C24.8715 15.6109 23.5461 16.9899 21.9854 18.147C23.0607 16.5127 23.9217 14.304 23.9217 11.3998C23.9348 9.8956 23.6739 8.39916 23.1489 6.96647ZM7.57457 5.5767C7.59647 5.51243 7.64508 5.45762 7.71087 5.42303C7.77666 5.38843 7.85488 5.37654 7.93019 5.38968C9.33767 5.67024 10.6612 6.2076 11.814 6.96647C11.2889 8.39916 11.028 9.8956 11.0411 11.3998C11.0411 14.304 11.9022 16.5152 12.9746 18.1433C11.4136 16.9865 10.0882 15.6074 9.05444 14.0644C6.48112 10.1567 7.02295 7.0667 7.57457 5.5767ZM8.1122 18.4929C4.29002 16.4993 3.05097 14.0412 2.65195 12.748C2.64149 12.7152 2.6387 12.6808 2.64375 12.647C2.6488 12.6132 2.66159 12.5806 2.68135 12.5512C2.71175 12.504 2.76194 12.469 2.82136 12.4534C3.95287 12.208 5.12934 12.1635 6.28091 12.3226C6.63614 13.1814 7.07796 14.0109 7.60117 14.8015C9.03759 16.9656 10.9964 18.8309 13.3414 20.2677C11.4927 19.9482 9.72265 19.3475 8.1122 18.4929ZM17.4814 20.407C16.2662 19.6492 12.7212 16.9601 12.7212 11.3998C12.7212 6.09985 15.9329 3.4132 17.3134 2.5038C17.3619 2.47207 17.4208 2.45491 17.4814 2.45491C17.542 2.45491 17.601 2.47207 17.6494 2.5038C19.0299 3.4132 22.2416 6.09985 22.2416 11.3998C22.2416 16.9943 18.7149 19.6504 17.4814 20.407ZM32.3081 12.7529C31.9091 14.0412 30.67 16.4993 26.8478 18.4978C25.2356 19.3506 23.4642 19.9493 21.6144 20.2665C23.9595 18.8296 25.9182 16.9644 27.3547 14.8003C27.8802 14.0103 28.3244 13.1812 28.6819 12.3226C29.8348 12.1647 31.0122 12.2109 32.1443 12.4583C32.2037 12.4739 32.2539 12.5089 32.2843 12.5561C32.3036 12.5857 32.3159 12.6183 32.3204 12.6521C32.325 12.6859 32.3218 12.7202 32.3109 12.7529H32.3081Z" fill="#0F405D"/>
</svg>
