<svg width="29" height="29" viewBox="0 0 29 29" fill="none" xmlns="http://www.w3.org/2000/svg">
<circle cx="14.335" cy="14.335" r="13.335" stroke="#0F405D" stroke-width="2"/>
<path d="M23.9911 14.7084C23.9184 14.585 23.8209 14.4768 23.7045 14.3901C23.588 14.3034 23.4549 14.24 23.3128 14.2035C22.6681 14.0443 22.0004 13.991 21.3375 14.0457C21.7191 12.418 21.4699 11.1335 21.219 10.3847C21.1314 10.1202 20.945 9.89665 20.696 9.75764C20.447 9.61863 20.1533 9.57412 19.8721 9.6328C18.9995 9.82175 18.1734 10.1731 17.44 10.6672C16.9296 9.59523 16.1579 8.65857 15.1909 7.93725C14.9925 7.79291 14.7508 7.71484 14.5024 7.71484C14.2539 7.71484 14.0123 7.79291 13.8138 7.93725C12.8474 8.65888 12.076 9.59549 11.5656 10.6672C10.832 10.1729 10.0056 9.82156 9.13263 9.6328C8.85149 9.57419 8.55782 9.61884 8.30895 9.75801C8.06007 9.89719 7.87384 10.1209 7.78662 10.3855C7.53572 11.1343 7.28646 12.4187 7.66811 14.0464C7.00517 13.9918 6.33743 14.0451 5.69282 14.2042C5.5507 14.2407 5.41754 14.3042 5.30108 14.3909C5.18462 14.4776 5.0872 14.5858 5.0145 14.7092C4.93809 14.836 4.88862 14.9763 4.86897 15.1218C4.84933 15.2673 4.8599 15.4151 4.90008 15.5566C5.17059 16.5255 6.00337 18.367 8.53031 19.8274C11.0573 21.2878 13.3006 21.2863 14.5028 21.2863C15.705 21.2863 17.945 21.2863 20.4736 19.8274C23.0022 18.3686 23.8333 16.5255 24.1039 15.5558C24.1443 15.4144 24.1551 15.2666 24.1358 15.1211C24.1164 14.9757 24.0672 14.8354 23.9911 14.7084ZM17.811 11.5737C18.4839 11.0839 19.2565 10.737 20.0781 10.5559C20.1217 10.5473 20.1671 10.5547 20.2055 10.5765C20.2438 10.5984 20.2724 10.6332 20.2857 10.6743C20.6077 11.6384 20.9239 13.633 19.4202 16.1578C18.8166 17.1537 18.0429 18.0438 17.1319 18.7907C17.7595 17.7358 18.2621 16.3101 18.2621 14.4354C18.2698 13.4645 18.1175 12.4985 17.811 11.5737ZM8.71992 10.6766C8.7327 10.6352 8.76107 10.5998 8.79948 10.5774C8.83788 10.5551 8.88354 10.5474 8.9275 10.5559C9.74908 10.737 10.5217 11.0839 11.1946 11.5737C10.8881 12.4985 10.7358 13.4645 10.7434 14.4354C10.7434 16.3101 11.246 17.7374 11.8721 18.7883C10.9609 18.0416 10.1872 17.1514 9.58375 16.1554C8.08164 13.633 8.39792 11.6384 8.71992 10.6766ZM9.03374 19.014C6.80264 17.7271 6.07938 16.1404 5.84646 15.3057C5.84035 15.2845 5.83872 15.2623 5.84167 15.2405C5.84462 15.2187 5.85209 15.1976 5.86362 15.1787C5.88137 15.1482 5.91067 15.1256 5.94535 15.1155C6.60584 14.9571 7.29257 14.9284 7.96478 15.0311C8.17213 15.5854 8.43003 16.1209 8.73544 16.6312C9.57392 18.0281 10.7173 19.2321 12.0862 20.1596C11.007 19.9534 9.9738 19.5656 9.03374 19.014ZM14.5028 20.2495C13.7934 19.7604 11.7241 18.0246 11.7241 14.4354C11.7241 11.0143 13.5989 9.28012 14.4047 8.6931C14.433 8.67262 14.4674 8.66154 14.5028 8.66154C14.5382 8.66154 14.5726 8.67262 14.6009 8.6931C15.4067 9.28012 17.2814 11.0143 17.2814 14.4354C17.2814 18.0467 15.2228 19.7611 14.5028 20.2495ZM23.1575 15.3088C22.9246 16.1404 22.2013 17.7271 19.9702 19.0171C19.0291 19.5676 17.9951 19.9541 16.9153 20.1588C18.2842 19.2313 19.4276 18.0273 20.266 16.6304C20.5728 16.1205 20.8321 15.5853 21.0408 15.0311C21.7138 14.9292 22.4011 14.959 23.0619 15.1187C23.0965 15.1287 23.1258 15.1513 23.1436 15.1818C23.1549 15.2009 23.162 15.222 23.1647 15.2438C23.1674 15.2656 23.1655 15.2877 23.1591 15.3088H23.1575Z" fill="#0F405D"/>
</svg>
