<svg width="29" height="29" viewBox="0 0 29 29" fill="none" xmlns="http://www.w3.org/2000/svg">
<path d="M5.42173 24.4192C6.23283 22.5082 8.12656 21.168 10.3333 21.168H18.3333C20.5401 21.168 22.4338 22.5082 23.2449 24.4192M19.6667 11.168C19.6667 14.1135 17.2789 16.5013 14.3333 16.5013C11.3878 16.5013 9 14.1135 9 11.168C9 8.22245 11.3878 5.83464 14.3333 5.83464C17.2789 5.83464 19.6667 8.22245 19.6667 11.168ZM27.6667 14.5013C27.6667 21.8651 21.6971 27.8346 14.3333 27.8346C6.96954 27.8346 1 21.8651 1 14.5013C1 7.13751 6.96954 1.16797 14.3333 1.16797C21.6971 1.16797 27.6667 7.13751 27.6667 14.5013Z" stroke="#0F405D" stroke-width="2" stroke-linecap="round" stroke-linejoin="round"/>
</svg>
